<?xml version="1.0" encoding="UTF-8" standalone="no"?>
<svg
   xmlns:dc="http://purl.org/dc/elements/1.1/"
   xmlns:cc="http://creativecommons.org/ns#"
   xmlns:rdf="http://www.w3.org/1999/02/22-rdf-syntax-ns#"
   xmlns:svg="http://www.w3.org/2000/svg"
   xmlns="http://www.w3.org/2000/svg"
   xmlns:sodipodi="http://sodipodi.sourceforge.net/DTD/sodipodi-0.dtd"
   xmlns:inkscape="http://www.inkscape.org/namespaces/inkscape"
   width="1920px"
   height="980px"
   viewBox="0 0 1920 980"
   version="1.1"
   id="SVGRoot"
   sodipodi:docname="back.svg"
   inkscape:version="1.0.1 (3bc2e813f5, 2020-09-07)">
  <defs
     id="defs299" />
  <sodipodi:namedview
     id="base"
     pagecolor="#ffffff"
     bordercolor="#666666"
     borderopacity="1.0"
     inkscape:pageopacity="0.0"
     inkscape:pageshadow="2"
     inkscape:zoom="0.35"
     inkscape:cx="400"
     inkscape:cy="560"
     inkscape:document-units="px"
     inkscape:current-layer="layer1"
     inkscape:document-rotation="0"
     showgrid="false"
     inkscape:window-width="1401"
     inkscape:window-height="1016"
     inkscape:window-x="0"
     inkscape:window-y="27"
     inkscape:window-maximized="0" />
  <metadata
     id="metadata302">
    <rdf:RDF>
      <cc:Work
         rdf:about="">
        <dc:format>image/svg+xml</dc:format>
        <dc:type
           rdf:resource="http://purl.org/dc/dcmitype/StillImage" />
        <dc:title></dc:title>
      </cc:Work>
    </rdf:RDF>
  </metadata>
  <g
     inkscape:label="Layer 1"
     inkscape:groupmode="layer"
     id="layer1">
    <g
       id="g242"
       transform="matrix(1,0,0,1.0652174,0,-170.43479)">
      <path
         fill="#d5d3ee"
         fill-opacity="0.4"
         d="M 0,466.09732 53.333327,429.61161 C 106.66666,393.6725 213.33332,319.88118 320,342.15524 426.66667,363.60938 533.33333,481.12887 640,480.71893 746.66666,481.12887 853.33334,363.60938 960.00001,334.91275 1066.6667,306.21613 1173.3333,363.60938 1280,378.64093 c 106.6667,15.03157 213.3332,-15.03155 320,-43.72818 106.6665,-28.69662 213.3333,-58.75977 266.6666,-72.83477 L 1920,247.45637 V 160 h -53.3334 c -53.3333,0 -160.0001,0 -266.6666,0 -106.6668,0 -213.3333,0 -320,0 -106.6667,0 -213.3333,0 -319.99999,0 -106.66667,0 -213.33335,0 -320.00001,0 -106.66667,0 -213.33333,0 -320,0 -106.66668,0 -213.33334,0 -266.666673,0 H 0 Z"
         id="path196"
         style="stroke-width:1.34982" />
      <path
         fill="#d5d3ee"
         fill-opacity="0.4"
         d="m 0,1080 53.333334,-6.625 C 106.66666,1066.25 213.33333,1053.75 320.00001,1026.6249 426.66668,1000 533.33334,960 640.00002,926.625 c 106.6667,-32.875 213.33339,-60.375 320.00002,-80 106.66646,-20.3749 213.33326,-32.875 319.99986,-40 C 1386.6666,800 1493.3333,800 1600,793.375 c 106.6667,-7.125 213.3333,-19.625 266.6666,-26.75 L 1920,760 v 320 h -53.3334 c -53.3333,0 -159.9999,0 -266.6666,0 -106.6667,0 -213.3334,0 -320.0001,0 -106.6666,0 -213.3334,0 -319.99986,0 -106.66663,0 -213.33332,0 -320.00002,0 -106.66668,0 -213.33334,0 -320.00001,0 -106.66668,0 -213.33335,0 -266.666676,0 z"
         id="path207"
         style="stroke-width:1.291" />
    </g>
  </g>
</svg>
