<?xml version="1.0" encoding="UTF-8" standalone="no"?>
<svg
   xmlns:dc="http://purl.org/dc/elements/1.1/"
   xmlns:cc="http://creativecommons.org/ns#"
   xmlns:rdf="http://www.w3.org/1999/02/22-rdf-syntax-ns#"
   xmlns:svg="http://www.w3.org/2000/svg"
   xmlns="http://www.w3.org/2000/svg"
   xmlns:sodipodi="http://sodipodi.sourceforge.net/DTD/sodipodi-0.dtd"
   xmlns:inkscape="http://www.inkscape.org/namespaces/inkscape"
   width="1920px"
   height="980px"
   viewBox="0 0 1920 980"
   version="1.1"
   id="SVGRoot"
   sodipodi:docname="back2.svg"
   inkscape:version="1.0.1 (3bc2e813f5, 2020-09-07)">
  <defs
     id="defs299" />
  <sodipodi:namedview
     id="base"
     pagecolor="#ffffff"
     bordercolor="#666666"
     borderopacity="1.0"
     inkscape:pageopacity="0.0"
     inkscape:pageshadow="2"
     inkscape:zoom="0.5"
     inkscape:cx="809.04842"
     inkscape:cy="334.38737"
     inkscape:document-units="px"
     inkscape:current-layer="layer1"
     inkscape:document-rotation="0"
     showgrid="false"
     inkscape:window-width="1401"
     inkscape:window-height="1016"
     inkscape:window-x="0"
     inkscape:window-y="27"
     inkscape:window-maximized="0" />
  <metadata
     id="metadata302">
    <rdf:RDF>
      <cc:Work
         rdf:about="">
        <dc:format>image/svg+xml</dc:format>
        <dc:type
           rdf:resource="http://purl.org/dc/dcmitype/StillImage" />
        <dc:title></dc:title>
      </cc:Work>
    </rdf:RDF>
  </metadata>
  <g
     inkscape:label="Layer 1"
     inkscape:groupmode="layer"
     id="layer1">
    <path
       fill="#d5d3ee"
       fill-opacity="0.4"
       d="m 0,990 53.33333,-7.6602 c 53.33333,-8.2382 160,-22.6914 266.66666,-54.0546 C 426.66665,897.5 533.33332,851.25 639.99998,812.6602 746.66665,774.6484 853.33334,742.8516 959.99994,720.1602 1066.6666,696.60157 1173.3333,682.14845 1280,673.91016 1386.6666,666.25 1493.3333,666.25 1600,658.58985 c 106.6666,-8.23828 213.3333,-22.69141 266.6666,-30.92969 L 1920,620 v 370 h -53.3334 c -53.3333,0 -160,0 -266.6666,0 -106.6667,0 -213.3334,0 -320,0 -106.6667,0 -213.3334,0 -320.00006,0 -106.6666,0 -213.33329,0 -319.99996,0 -106.66666,0 -213.33333,0 -319.99999,0 -106.66666,0 -213.33333,0 -266.66666,0 z"
       id="path469"
       style="stroke-width:1.38819" />
    <path
       fill="#d5d3ee"
       fill-opacity="0.4"
       d="M 0,439.41051 53.333335,376.63758 C 106.66667,313.86465 213.33334,188.3188 320.00001,156.93233 c 106.66667,-31.38647 213.33333,31.38647 320,31.38647 106.66667,0 213.33334,-62.77294 320.00001,-83.76264 106.66668,-20.205034 213.33338,-0.58849 320.00008,41.97941 106.6666,41.78323 213.3333,104.55616 319.9999,125.54585 106.6667,20.20504 213.3334,0.5885 266.6667,-10.59293 L 1920,251.09173 V 0 h -53.3333 C 1813.3334,0 1706.6667,0 1600,0 1493.3334,0 1386.6667,0 1280.0001,0 1173.3334,0 1066.6667,0 960.00002,0 853.33335,0 746.66668,0 640.00001,0 533.33334,0 426.66668,0 320.00001,0 213.33334,0 106.66667,0 53.333335,0 H 0 Z"
       id="path564"
       style="stroke-width:1.61726" />
  </g>
</svg>
