<svg id="Layer_1" data-name="Layer 1" xmlns="http://www.w3.org/2000/svg" xmlns:xlink="http://www.w3.org/1999/xlink" viewBox="0 0 444.79 325.9"><defs><linearGradient id="linear-gradient" x1="106.51" y1="172.67" x2="82.64" y2="215.36" gradientUnits="userSpaceOnUse"><stop offset="0" stop-opacity="0"/><stop offset="0.99"/></linearGradient><linearGradient id="linear-gradient-2" x1="148.81" y1="300.09" x2="88.22" y2="222.29" xlink:href="#linear-gradient"/><linearGradient id="linear-gradient-3" x1="337.86" y1="316.62" x2="347.07" y2="316.62" gradientUnits="userSpaceOnUse"><stop offset="0" stop-color="#e5c5d5"/><stop offset="0.42" stop-color="#ead4d1"/><stop offset="1" stop-color="#f0e9cb"/></linearGradient><linearGradient id="linear-gradient-4" x1="358.58" y1="315.82" x2="369.94" y2="315.82" xlink:href="#linear-gradient-3"/><linearGradient id="linear-gradient-5" x1="106.05" y1="213.39" x2="340.19" y2="213.39" xlink:href="#linear-gradient"/><linearGradient id="linear-gradient-6" x1="221.83" y1="226.26" x2="225.5" y2="164.28" xlink:href="#linear-gradient"/><linearGradient id="linear-gradient-7" x1="369.13" y1="160.88" x2="378.93" y2="160.88" xlink:href="#linear-gradient-3"/><linearGradient id="linear-gradient-8" x1="75.07" y1="140.95" x2="96.86" y2="140.95" xlink:href="#linear-gradient-3"/><linearGradient id="linear-gradient-9" x1="66.49" y1="205.49" x2="105.74" y2="187.82" xlink:href="#linear-gradient"/><linearGradient id="linear-gradient-10" x1="116.53" y1="199.34" x2="139.8" y2="199.34" xlink:href="#linear-gradient-3"/><linearGradient id="linear-gradient-11" x1="118.39" y1="250.99" x2="49.86" y2="201.3" xlink:href="#linear-gradient"/><linearGradient id="linear-gradient-12" x1="111.04" y1="172.69" x2="136.6" y2="172.69" xlink:href="#linear-gradient-3"/><linearGradient id="linear-gradient-13" x1="203.17" y1="144.07" x2="216.2" y2="144.07" gradientUnits="userSpaceOnUse"><stop offset="0" stop-color="#867580"/><stop offset="0.57" stop-color="#9b8f8e"/></linearGradient><linearGradient id="linear-gradient-14" x1="206.78" y1="148.73" x2="211.6" y2="129.3" xlink:href="#linear-gradient"/><linearGradient id="linear-gradient-15" x1="199" y1="129.02" x2="220.77" y2="129.02" xlink:href="#linear-gradient-13"/><linearGradient id="linear-gradient-16" x1="203.88" y1="154.66" x2="222.02" y2="199.88" xlink:href="#linear-gradient"/><linearGradient id="linear-gradient-17" x1="201.36" y1="198.01" x2="219" y2="198.01" xlink:href="#linear-gradient-13"/><linearGradient id="linear-gradient-18" x1="344.12" y1="118.52" x2="366.27" y2="118.52" xlink:href="#linear-gradient-3"/><linearGradient id="linear-gradient-19" x1="293.13" y1="153.44" x2="362.23" y2="153.44" xlink:href="#linear-gradient-3"/><linearGradient id="linear-gradient-20" x1="221.22" y1="129.45" x2="213.64" y2="128.88" xlink:href="#linear-gradient"/></defs><title>Team Meeting 2</title><path d="M11.77,251c-2.45-29.63-4.65-60.83,7.91-87.77,7.11-15.25,18.49-28,28.08-41.83C59.3,104.79,68.35,86.52,80.33,70.2s27.66-31,47.18-36.35c40.08-11,81.94,20,122.72,12,18.08-3.55,33.77-14.42,51-21,18.27-7,38.82-9.1,57.53-3.37s35.21,19.87,41.48,38.4c7.16,21.14.75,44.72,6,66.41,5.33,22.15,22,39.55,33,59.5a126.06,126.06,0,0,1,14.7,74.9c-1.55,13.2-5.38,26.5-13.57,37-8.93,11.43-22.23,18.55-35.56,24.27A276.71,276.71,0,0,1,230.83,336.2c-20.66-5.1-40.92-12.62-62.15-14-21.41-1.41-42.66,3.51-64,5.94C84.06,330.5,53.51,330.9,35.33,319,15.75,306.11,13.49,271.66,11.77,251Z" transform="translate(-9.88 -18.16)" fill="#ffc24a" opacity="0.18" style="isolation:isolate"/><path d="M112.73,173.21a1.83,1.83,0,0,1,1.44.14,1.74,1.74,0,0,1,.52,1,19.38,19.38,0,0,1,.61,4.28,3.86,3.86,0,0,1-.28,1.85,4.27,4.27,0,0,1-1.43,1.47,194.78,194.78,0,0,1-22.54,14.35c-.33.18-3.33-10-3.38-11-.16-2.68.69-3.89,3-5.1C97.28,176.78,105.49,174.6,112.73,173.21Z" transform="translate(-9.88 -18.16)" fill="#ffc24a"/><path d="M112.73,173.29a1.79,1.79,0,0,1,1.44.14,1.74,1.74,0,0,1,.52,1,19.38,19.38,0,0,1,.61,4.28,3.88,3.88,0,0,1-.28,1.85,4.25,4.25,0,0,1-1.43,1.46,193.52,193.52,0,0,1-22.54,14.36c-.33.18-3.33-10-3.38-11-.16-2.68.69-3.89,3-5.1C97.28,176.85,105.49,174.68,112.73,173.29Z" transform="translate(-9.88 -18.16)" fill="url(#linear-gradient)"/><path d="M168.38,267.59a8,8,0,0,1,2.65,1,2.53,2.53,0,0,1,1.18,2.42c-.3,1.55-2.27,2-3.84,2.09a91,91,0,0,1-18.66-.89c-.57-.09-1.26-.14-1.62.31s-.24.8-.37,1.2c-.43,1.35-2.48,1.43-3.52.47a7,7,0,0,1-1.61-3.83A56.05,56.05,0,0,0,136.91,255a15,15,0,0,1-1.6-3.57c-.84-3.49,2.77-6.4,5.79-4.16,2.71,2,4.54,6.11,7,8.56A45.89,45.89,0,0,0,168.38,267.59Z" transform="translate(-9.88 -18.16)" fill="#3e3e54"/><path d="M132.47,306.78a11.45,11.45,0,0,0,.22,4,3.1,3.1,0,0,0,2.92,2.33c1.78-.16,2.62-2.24,3.08-4,6.41,5.23,15.53,5.57,23.71,4.29a1.44,1.44,0,0,0,1-.42c.53-.67-.39-1.53-1.16-1.9l-13.45-6.39c-3.17-1.51-6.47-3.13-8.51-6-1.51-2.11-4.4-12.8-8.37-7C129.26,295.56,132.62,302.58,132.47,306.78Z" transform="translate(-9.88 -18.16)" fill="#3e3e54"/><path d="M87.48,240.58l20.32,7.23a6.93,6.93,0,0,1,3.32,1.94,7,7,0,0,1,1.1,3,392.71,392.71,0,0,1,5.71,40.69,43.22,43.22,0,0,0,19.3.3,2.06,2.06,0,0,0,1.46-.8,2,2,0,0,0,.16-1c-.26-15.78-2-31.76-8-46.38a16.7,16.7,0,0,0-4.08-6.54c-2-1.72-4.57-2.5-7-3.49-4-1.66-7.93-4-12.29-4.37-6.42-.5-12.34,3.52-16.87,8.1C89.69,239.18,88.29,240.14,87.48,240.58Z" transform="translate(-9.88 -18.16)" fill="#ffc24a"/><path d="M87.32,240.43l20.32,7.22a7,7,0,0,1,3.32,1.94,6.8,6.8,0,0,1,1.1,3,395.27,395.27,0,0,1,5.72,40.68,43.18,43.18,0,0,0,19.29.31,2,2,0,0,0,1.46-.8,2.16,2.16,0,0,0,.17-1c-.26-15.77-2.06-31.76-8-46.37a16.58,16.58,0,0,0-4.09-6.55c-2-1.71-4.56-2.49-7-3.48-4-1.66-7.93-4-12.29-4.37-6.42-.51-12.34,3.52-16.87,8.1C89.53,239,88.14,240,87.32,240.43Z" transform="translate(-9.88 -18.16)" fill="url(#linear-gradient-2)"/><rect x="57.36" y="238.26" width="3.97" height="45.8" fill="#ffc24a"/><rect x="43.56" y="284.44" width="27.99" height="5.6" fill="#ffc24a"/><rect x="180.04" y="220.83" width="3.97" height="45.8" fill="#ffc24a"/><rect x="166.23" y="267.01" width="27.99" height="5.6" fill="#ffc24a"/><path d="M177.77,221.34a19.34,19.34,0,0,0-1.11,3.35,3,3,0,0,0,1.2,3.09,2.84,2.84,0,0,0,1.14.3,3.87,3.87,0,0,0,3.06-1.25,6.91,6.91,0,0,0,1.4-3.36,30.64,30.64,0,0,0,.43-8.81c-.22-2.29-2.54-5-4.37-2.41C177.9,214.58,178.68,218.67,177.77,221.34Z" transform="translate(-9.88 -18.16)" fill="#3e3e54"/><path d="M169.44,219.26c-2.58,2.34,1.17,11.57,3.21,14.39s3.64,6,7,6.89a64.06,64.06,0,0,0,12.6,1.57c9.13.5,18.29.76,27.43.39a57.76,57.76,0,0,0,12-1.45c2.54-.65,5.26-1.83,6.26-4.25.93-2.25,0-4.93-1.69-6.66a14.79,14.79,0,0,0-6.36-3.41c-8.33-2.59-17.14-2.78-25.8-2.92-4.26-.06-8.57,0-12.82-.45-2.69-.27-5.29-.88-8-.69C179.68,222.93,172.25,216.73,169.44,219.26Z" transform="translate(-9.88 -18.16)" fill="#3e3e54"/><path d="M185.82,234.89c3.34,2.22,7.36,2.19,11.19,2.12l21.92-.45c2.51-.05,5.1-.12,7.4-1.33,3.88-2,6.3-7.63,5.07-12.46a5,5,0,0,0-1.65-2.86,4.67,4.67,0,0,0-3.05-.53c-11.37.64-25.85-3.3-37.22-2.66-2.66.15-6.59,3.69-8.48,6.84C178.79,227.25,183.3,233.22,185.82,234.89Z" transform="translate(-9.88 -18.16)" fill="#3e3e54"/><path d="M196.65,282.6c.09,1.34.34,2.9,1.58,3.51a4.24,4.24,0,0,0,1.77.3l7.54.23a1.94,1.94,0,0,0,1.24-.25,1.71,1.71,0,0,0,.54-1.12c1.68-8.9,1.61-52.13,3-63.15.65-5.38-4.29-7.13-10.75-8.18-5.58-.91-6.84,2.79-6.73,7.29.35,13.23.11,26.45.66,39.68Q195.89,271.76,196.65,282.6Z" transform="translate(-9.88 -18.16)" fill="#3e3e54"/><path d="M217,290.86c.1,1.39.34,3,1.59,3.67a4.07,4.07,0,0,0,1.77.32l7.53.23a1.84,1.84,0,0,0,1.25-.25,1.87,1.87,0,0,0,.53-1.17c1.69-9.33,1.62-54.62,3-66.16.65-5.64-4.29-7.48-10.74-8.58-5.59-.95-6.85,2.93-6.73,7.64.35,13.86.11,27.71.65,41.57Q216.25,279.5,217,290.86Z" transform="translate(-9.88 -18.16)" fill="#3e3e54"/><path d="M350.18,198c-1.67,23.52-15,45.87-12.23,69.29.78,6.69,2.89,13.32,2.28,20-.65,7.06-.2,14.18-.2,21.27a3.86,3.86,0,0,0,.29,1.82,3.29,3.29,0,0,0,1.37,1.21,9.49,9.49,0,0,0,6.61.89A289.54,289.54,0,0,0,351.39,276c.08-3.87.09-7.8,1.14-11.52a41.83,41.83,0,0,1,3.21-7.48q5-9.79,9.9-19.63l3.25-6.47c1-2,2-4,3-6,2.41-5.06,4.6-10.42,4.52-16-.06-3.92-1.48-8.09-4.72-10.29-2.34-1.59-5.28-2-8.1-2.09C359.61,196.32,354.11,197.51,350.18,198Z" transform="translate(-9.88 -18.16)" fill="#3e3e54"/><path d="M373.85,228.32c-.62,5.52-1.94,10.94-2.56,16.46-.44,4-.52,8-.57,12q-.36,26,.47,52c0,1.29,0,2.72-.81,3.69-1.3,1.47-3.66,1-5.53.44-1-14.68-5.25-31.65-6.22-46.32-.56-8.35-4.55-16.74-4.29-25.1.26-8,8-13.74,11.05-21.15.92-2.25,4.51-10,8.11-6.69C376,216,374.2,225.21,373.85,228.32Z" transform="translate(-9.88 -18.16)" fill="#3e3e54"/><path d="M339.51,319.32c-.67.6-1.63,1.12-1.65,2a2.22,2.22,0,0,0,.37,1.1,1.58,1.58,0,0,0,.8.86,1.56,1.56,0,0,0,.8,0l4-.88a5.22,5.22,0,0,0,1.85-.68c1.29-.92,1.41-2.75,1.42-4.33v-2.46c0-1.62-.05-3.72-1.65-4.64a2.29,2.29,0,0,0-3.15.62C340.66,313.42,342,317.05,339.51,319.32Z" transform="translate(-9.88 -18.16)" fill="url(#linear-gradient-3)"/><path d="M334,321.76a2,2,0,0,0-.86,1,1.42,1.42,0,0,0,.55,1.43,3.3,3.3,0,0,0,1.49.59,20.7,20.7,0,0,0,3.52.25l6.38.08a2.1,2.1,0,0,0,1.42-.32,2,2,0,0,0,.55-1.29,13,13,0,0,0,.08-2.86.63.63,0,0,0-.19-.46.54.54,0,0,0-.45-.05c-2.06.35-5.1,2.26-7,.81-.65-.5-1-.87-1.91-.74A9.13,9.13,0,0,0,334,321.76Z" transform="translate(-9.88 -18.16)" fill="#3e3e54"/><path d="M359.26,319.57c-.36.21-.73.56-.67,1s.7.7,1.22.75a19.15,19.15,0,0,0,5.85-.29,5.7,5.7,0,0,0,2.28-.87c1.39-1,1.76-2.92,1.92-4.64a7,7,0,0,0-.7-4.6c-1.5-2.24-4.2,1.74-4.58,3.21a6.86,6.86,0,0,1-1.6,3.57C361.94,318.65,360.45,318.86,359.26,319.57Z" transform="translate(-9.88 -18.16)" fill="url(#linear-gradient-4)"/><path d="M365.43,317.07c-.45-.29-.84-.75-1.38-.78a1.86,1.86,0,0,0-1.09.39c-1.7,1-3.37,2.15-5,3.31a4.56,4.56,0,0,0-1.3,1.21,1.64,1.64,0,0,0-.15,1.69,1.71,1.71,0,0,0,1,.72,5.39,5.39,0,0,0,2.43,0c3.68-.61,7.95-1,11.43-2.36,2.61-1,1.25-4.08-1.18-4.11C368.58,317.11,367,318.07,365.43,317.07Z" transform="translate(-9.88 -18.16)" fill="#3e3e54"/><path d="M168,176.11l-.47,18.82c-.26,10.17-.48,20.65,2.43,30.14a12.13,12.13,0,0,0,2.91,5.5,8.4,8.4,0,0,0,5.43,1.8c5,.29,10.42-.59,14-4.91,3.17-3.77,4.36-9.45,4.89-14.89a170.71,170.71,0,0,0,.17-22.62c-.24-6.63-.6-13.71-3.78-19a28.33,28.33,0,0,0-5.37-6.12C179,156.23,168.4,161.46,168,176.11Z" transform="translate(-9.88 -18.16)" fill="#3e3e54"/><ellipse cx="213.25" cy="186.22" rx="117.07" ry="12.31" fill="#ffc24a"/><path d="M340.19,208.19c0,6.8-52.41,12.31-117.07,12.31S106.05,215,106.05,208.19c0-.65.48-1.29,1.4-1.91,8.71,5.9,57.18,10.41,115.67,10.41s107-4.51,115.68-10.41C339.72,206.9,340.19,207.54,340.19,208.19Z" transform="translate(-9.88 -18.16)" fill="#ffc24a"/><path d="M340.19,208.19c0,6.8-52.41,12.31-117.07,12.31S106.05,215,106.05,208.19c0-.65.48-1.29,1.4-1.91,8.71,5.9,57.18,10.41,115.67,10.41s107-4.51,115.68-10.41C339.72,206.9,340.19,207.54,340.19,208.19Z" transform="translate(-9.88 -18.16)" fill="url(#linear-gradient-5)"/><path d="M338.8,206.28c-8.71,5.9-57.19,10.41-115.68,10.41s-107-4.51-115.67-10.41c8.71-5.89,57.18-10.4,115.67-10.4S330.09,200.39,338.8,206.28Z" transform="translate(-9.88 -18.16)" fill="#ffc24a"/><path d="M340.19,204.38c0,.65-.47,1.28-1.39,1.9-8.71,5.9-57.19,10.41-115.68,10.41s-107-4.51-115.67-10.41c-.92-.62-1.4-1.25-1.4-1.9,0-6.8,52.42-12.32,117.07-12.32S340.19,197.58,340.19,204.38Z" transform="translate(-9.88 -18.16)" fill="url(#linear-gradient-6)"/><path d="M376.73,151.28a19.87,19.87,0,0,1,2.19,7.1,17,17,0,0,1-1.35,6.68A114.22,114.22,0,0,1,371,179c.62-1.17-.34-5-.43-6.33q-.21-3.31-.39-6.64-.37-6.8-.63-13.61c-.08-2.15-1.48-8.79,1.75-9.65C374,142.05,375.78,149.18,376.73,151.28Z" transform="translate(-9.88 -18.16)" fill="url(#linear-gradient-7)"/><path d="M345.61,176.79a39.26,39.26,0,0,0,.37-7.19,33.47,33.47,0,0,0-.54-6.17c-.87-4.14-3.18-8-3-12.26.16-4.72,3.31-8.74,6.32-12.39a26.13,26.13,0,0,1,3.94-4.13,8.83,8.83,0,0,1,5.24-2c3.48,0,7.23-1.08,10.06.95s3.82,5.78,4.36,9.25c2.22,14.37.21,29.12,2,43.55.69,5.59,2,11.1,2.49,16.71a2.15,2.15,0,0,1-.37,1.78,2.09,2.09,0,0,1-1.29.43,91.12,91.12,0,0,1-26.27-1.1,1.56,1.56,0,0,1-.89-.38,1.59,1.59,0,0,1-.3-.81C346.27,194.47,344.17,185.31,345.61,176.79Z" transform="translate(-9.88 -18.16)" fill="#ffc24a"/><path d="M96.71,139.32a2.86,2.86,0,0,1,0,1.83c-.33.69-1.14,1-1.71,1.51-1.42,1.27-1.18,3.53-1.9,5.29a5.08,5.08,0,0,1-6.36,2.68,1.86,1.86,0,0,0-1-.23,1.27,1.27,0,0,0-.67.52c-1,1.36-1,3.4-2.2,4.56a3.42,3.42,0,0,1-3.62.47,5.94,5.94,0,0,1-2.7-2.66c-2-3.52-1.49-7.83-1-11.82s1-7.76,2.5-11.34a7.4,7.4,0,0,1,1.9-2.9c1.42-1.2,3.4-1.39,5.25-1.5a16.9,16.9,0,0,1,5.36.27C96,127.44,95.71,134.76,96.71,139.32Z" transform="translate(-9.88 -18.16)" fill="url(#linear-gradient-8)"/><path d="M96.43,122.52a2.57,2.57,0,0,1,1.34,2,3.31,3.31,0,0,1-1.72,3,7.49,7.49,0,0,1-3.52.87,23.2,23.2,0,0,0-3.64.27,4.62,4.62,0,0,0-3,1.85c-.88,1.37-.63,3.15-.62,4.78a2.61,2.61,0,0,1-.26,1.36,1,1,0,0,1-1.19.51,1.49,1.49,0,0,1-.58-.56A19.11,19.11,0,0,0,82,134.73a2.51,2.51,0,0,0-1.88-1,2.42,2.42,0,0,0-1.72.93,3.09,3.09,0,0,0-.77,1.64c-.17,1.34.7,2.58,1.52,3.65a8.74,8.74,0,0,1-3.64,3.56,2.63,2.63,0,0,1-1.41.39c-.87-.08-1.48-.88-2-1.6l-3.68-5.42A6.39,6.39,0,0,1,67.13,134a6.49,6.49,0,0,1,.78-3.22,21.62,21.62,0,0,1,3.19-5.64,28.35,28.35,0,0,0,2.64-4.45,6.32,6.32,0,0,1,3.93-3.32c1.82-.35,3.61.63,5.43,1s3.77.16,5.62.52C91.19,119.41,94.2,121.36,96.43,122.52Z" transform="translate(-9.88 -18.16)" fill="#3e3e54"/><path d="M80,152.9a9.09,9.09,0,0,1,3,3c1.06,2,.69,4.4.29,6.61a35.5,35.5,0,0,1-11.26-9.3c-1.14-1.51-.71-4.27,1.67-4.12C75.78,149.2,78.44,151.79,80,152.9Z" transform="translate(-9.88 -18.16)" fill="#fff"/><path d="M81.68,161.13A15.12,15.12,0,0,1,83.76,164c.8,1.53,8.83,27.4,9.06,29a19.25,19.25,0,0,1-.06,4.55L90.5,222a2.31,2.31,0,0,1-.36,1.25,2.25,2.25,0,0,1-1,.61l-16.07,6a41.24,41.24,0,0,1-7.35,2.23,12.48,12.48,0,0,0-5.35,2.23c-2.76,2-3.65,8.07-6.05,8.11-1.83-5.2,4.09-26.32,5.11-30.19,3.6-13.73-1.11-28.14-1.31-42.34a28.74,28.74,0,0,1,.6-7c1.14-4.86,4.69-10,9.37-12.11,1.54-.68,1.33-.76,2.93.4,1.26.93,2.49,1.94,3.68,3A69.79,69.79,0,0,1,81.68,161.13Z" transform="translate(-9.88 -18.16)" fill="#ffc24a"/><path d="M65.12,182l14.57,29.5L80,227.72s10.25-3.29,10.75-8.3.95-15.8.95-15.8L68.79,176Z" transform="translate(-9.88 -18.16)" fill="url(#linear-gradient-9)"/><path d="M64,164.19a82.81,82.81,0,0,0-1,14.07,12.56,12.56,0,0,0,.36,3.23,12.88,12.88,0,0,0,2,3.72,157.37,157.37,0,0,0,19,22.5,5,5,0,0,0,2.26,1.52,5.07,5.07,0,0,0,1.86,0l25.61-3.74a1.6,1.6,0,0,0,1.75-2.05l-.65-7.76a80.73,80.73,0,0,1-24.56-1.55,5.46,5.46,0,0,1-2.46-1A5.61,5.61,0,0,1,86.9,191c-3.62-8.45-7.19-16.91-10.84-25.34-1-2.4-2.11-5.19-5-5.82C67.77,159.08,64.57,160.8,64,164.19Z" transform="translate(-9.88 -18.16)" fill="#ffc24a"/><path d="M116.4,196.83c.86-.15,1.93-.21,2.42.51a2.27,2.27,0,0,1,.29,1c.13,1,.23,2.08.29,3.13a5.59,5.59,0,0,1-.41,3c-1.56,0-3.13-.05-4.69-.15a1.24,1.24,0,0,1-.63-.17,1.28,1.28,0,0,1-.31-.5c-.51-1.32-1.61-4-1.09-5.4S115.25,197,116.4,196.83Z" transform="translate(-9.88 -18.16)" fill="#fff"/><path d="M122.58,195.48a10.58,10.58,0,0,1,3.23-1.55,6.81,6.81,0,0,1,4.9,1.25c1.45.94,2.71,2.14,4.18,3.06s3.24,1.62,4.56,2.83a.88.88,0,0,1,.35.58c0,.32-.28.55-.57.69-1.69.83-3.7.3-5.53-.15-1.47-.36-3.11-.64-4.4.13-1.1.65-1.75,2-3,2.39a4.37,4.37,0,0,1-2.35-.06,34.21,34.21,0,0,1-6.08-2,2.5,2.5,0,0,1-.81-.5c-1-1-.7-3.65.51-4.4a12.31,12.31,0,0,1,2-.78A22.27,22.27,0,0,0,122.58,195.48Z" transform="translate(-9.88 -18.16)" fill="url(#linear-gradient-10)"/><path d="M114.72,213.56a4.36,4.36,0,0,1,6,1.34,223.74,223.74,0,0,1,21.64,28.63,2.07,2.07,0,0,1,.38.86,2.15,2.15,0,0,1-1,1.68l-7.18,6.6a2,2,0,0,1-1.25.67,2,2,0,0,1-1.07-.51l-19.12-14.62a3.09,3.09,0,0,0-1.64-.8,2.9,2.9,0,0,0-1.25.32c-3.27,1.43-6.2,3.54-9.44,5.06-7.15,3.35-15.33,3.6-23.23,3.46-7.75-.14-15.63-.63-22.87-3.38-1.48-.56,4.48-11.27,7.34-11.53a45.94,45.94,0,0,0,14-3.58c3.45-1.5,6.74-3.5,10.39-4.51,2.31-.64,2.11-3,4.38-3.83C98,216.89,107.48,216,114.72,213.56Z" transform="translate(-9.88 -18.16)" fill="#ffc24a"/><path d="M114.72,213.56a4.36,4.36,0,0,1,6,1.34,223.74,223.74,0,0,1,21.64,28.63,2.07,2.07,0,0,1,.38.86,2.15,2.15,0,0,1-1,1.68l-7.18,6.6a2,2,0,0,1-1.25.67,2,2,0,0,1-1.07-.51l-19.12-14.62a3.09,3.09,0,0,0-1.64-.8,2.9,2.9,0,0,0-1.25.32c-3.27,1.43-6.2,3.54-9.44,5.06-7.15,3.35-15.33,3.6-23.23,3.46-7.75-.14-15.63-.63-22.87-3.38-1.48-.56,4.48-11.27,7.34-11.53a45.94,45.94,0,0,0,14-3.58c3.45-1.5,6.74-3.5,10.39-4.51,2.31-.64,2.11-3,4.38-3.83C98,216.89,107.48,216,114.72,213.56Z" transform="translate(-9.88 -18.16)" fill="url(#linear-gradient-11)"/><path d="M49.77,183c1.94,5.34,2.09,11.14,2.21,16.82l.78,36.48a8.59,8.59,0,0,0,.45,3.08c1.27,3.17,5.47,3.66,8.88,3.66h27.5c3.12,0,6.4,0,9.13,1.54s4.67,5,3.36,7.81c-1.48,3.23-5.8,3.69-9.35,3.69l-45.37,0a7.14,7.14,0,0,1-3.53-.61c-2-1.1-2.39-3.68-2.61-5.92l-6.41-65.35c-.36-3.71-1-12.2,4-12.75C43.55,171,48.52,179.57,49.77,183Z" transform="translate(-9.88 -18.16)" fill="#3e3e54"/><path d="M111,176.88a38.89,38.89,0,0,1,10.42-10.12l-.51,3.81a45.61,45.61,0,0,1,13.42-4.65c.82-.14,1.9-.12,2.18.66.22.62-.27,1.24-.72,1.72a57.56,57.56,0,0,1-7.78,7.28,19.4,19.4,0,0,1-9.78,3.92,6.5,6.5,0,0,1-3.89-.73,3.12,3.12,0,0,1-1.47-3.43" transform="translate(-9.88 -18.16)" fill="url(#linear-gradient-12)"/><path d="M182.12,151.23a7.5,7.5,0,0,0-3.18,1.68,7,7,0,0,0-1.43,3.78l-5.94,36.69c-.27,1.67-.51,3.49.4,4.94,1.08,1.73,3.39,2.29,5.48,2.64a114.61,114.61,0,0,0,20.77,1.6,1.59,1.59,0,0,0,1-.25,1.46,1.46,0,0,0,.39-1,30.25,30.25,0,0,0-.17-8.23l-12.87-1.62c-1.11-.14-1.06,0-1.56-.95a3.06,3.06,0,0,1-.23-1.59c.22-5.18-.06-10.71,1.78-15.59,1.58,4.91,2.55,14.23,2.64,19.36,12.44-.52,24.8-.9,37.25-.34a147.53,147.53,0,0,1,1.34-22.23l4.89,10.43a10.9,10.9,0,0,1,1.42,5c-.08,2.14-1.42,4.22-.93,6.31l15.8-.51-2.13-10.87a27.69,27.69,0,0,0-3.61-10.14l-7.72-14.45a11.8,11.8,0,0,0-2.3-3.33,11.59,11.59,0,0,0-3.11-1.85A66.64,66.64,0,0,0,204.4,145C196.85,144.9,189.08,148.87,182.12,151.23Z" transform="translate(-9.88 -18.16)" fill="#ffc24a"/><path d="M207.62,188.49c5.16-4.94,6.66-12.29,7.91-19.17l2.21-12.16a39.26,39.26,0,0,0,.91-8.76,1.31,1.31,0,0,0-.28-.88,1.48,1.48,0,0,0-1.08-.28c-5.72,0-14.88-2.18-15.84,5.17a61.62,61.62,0,0,0,1.72,23.29C203.52,177,208,188.09,207.62,188.49Z" transform="translate(-9.88 -18.16)" fill="#fff"/><path d="M203.4,144a10.21,10.21,0,0,0-.15,3.16,6,6,0,0,0,.88,2.11,6.75,6.75,0,0,0,4.41,3.37c1.64.24,3.26-.51,4.8-1.28a5,5,0,0,0,1.84-1.32,5.41,5.41,0,0,0,1-3,19.86,19.86,0,0,0-.26-4.28l-.7-5.25a1.46,1.46,0,0,0-.2-.64.79.79,0,0,0-.5-.26c-2.67-.64-6.35-1.82-9.05-.86S203.76,141.38,203.4,144Z" transform="translate(-9.88 -18.16)" fill="url(#linear-gradient-13)"/><path d="M215.2,137.57s-4.45,9-8.92,8.21-2.53-7.58-2.53-7.58Z" transform="translate(-9.88 -18.16)" fill="url(#linear-gradient-14)"/><path d="M217.12,127.91c.59-.89,1.49-1.9,2.55-1.63a1.79,1.79,0,0,1,1,2.34,9.2,9.2,0,0,1-1.6,2.36c-1.92,2.56-2.26,6.09-4.63,8.28a10.09,10.09,0,0,1-6.71,2.24,8,8,0,0,1-2.85-.35c-2.16-.76-3.46-2.86-4.23-4.92a28.13,28.13,0,0,1-1.54-7.48,17.1,17.1,0,0,1,.52-6.76,7.94,7.94,0,0,1,4.48-5c3.45-1.33,7.55.57,9.69,3.48s2.77,6.57,3.21,10.11" transform="translate(-9.88 -18.16)" fill="url(#linear-gradient-15)"/><path d="M199.13,123.79c0,.39-.21.79,0,1.14a.86.86,0,0,0,1.06.33,2.11,2.11,0,0,0,.9-.8c.88-1.2,1.53-2.6,2.73-3.51s3.26-1,4.08.18a.7.7,0,0,0,.21.24.67.67,0,0,0,.46,0,5.43,5.43,0,0,1,5.25,1.54,7.5,7.5,0,0,1,1.92,5.09c0,.56.7,2.53,1.26,2.36.16-.05.21-1.66.32-1.78.39-.44.41-.58.8-1a1.15,1.15,0,0,1,.45-.37c.43-.16.87.18,1.33.28a1.72,1.72,0,0,0,1.86-1.25,4.67,4.67,0,0,0-.1-2.37,4.41,4.41,0,0,1-.07-2.36c.38-1.14,1.65-2,1.61-3.17a2.63,2.63,0,0,0-.31-1,9.36,9.36,0,0,0-2.65-3.32,8.7,8.7,0,0,0-1.51-2.28,3.18,3.18,0,0,0-2.53-1c-.42.06-.83.23-1.25.26-1.67.11-3-1.89-4.64-1.53-.53.12-1,.48-1.51.57-.95.17-1.85-.53-2.81-.51s-1.7.71-2.56,1.08-2.1.54-2.52,1.4c-.18.36-.23.83-.6,1a1.67,1.67,0,0,1-.91,0,2.55,2.55,0,0,0-2.31,1,8.8,8.8,0,0,0-1.49,5.85,2.67,2.67,0,0,0,1.38,2.43C197.69,122.6,199.07,122.72,199.13,123.79Z" transform="translate(-9.88 -18.16)" fill="#3e3e54"/><path d="M208.76,150.87a5.38,5.38,0,0,0-3.23,2.55,15.08,15.08,0,0,0-1.44,3.86c.11-.42-1-2.06-1.21-2.52-.4-.92-.75-1.86-1.09-2.8-.44-1.23-1.82-3.65-1.17-4.93C202.17,144,207.61,149.65,208.76,150.87Z" transform="translate(-9.88 -18.16)" fill="#fff"/><path d="M210.63,151.26c2.13.82,3.4,2.88,5.19,4.26a.68.68,0,0,0,.31.14.55.55,0,0,0,.33-.15,7.39,7.39,0,0,0,2.27-3.38c.48-1.29,1.14-6.32-1.67-5.12a18.69,18.69,0,0,0-2.95,2.15A32.14,32.14,0,0,1,210.63,151.26Z" transform="translate(-9.88 -18.16)" fill="#fff"/><path d="M207.8,168.81a44.33,44.33,0,0,1,.26-10.36,5.68,5.68,0,0,0,.06-2c-.28-1.35-1.59-2.44-1.55-3.81.06-1.8,2.36-2.82,4.16-2.3a3.19,3.19,0,0,1,2,4.36c-.23.43-.57.82-.76,1.27a4.24,4.24,0,0,0,.31,3c.94,2.63,2.08,16.33,2,17.46,0,.84-1.78,4.62-2.07,5.41-1.72,4.62-3.75,6.21-4.57,6.59C207,182.77,208.34,174.54,207.8,168.81Z" transform="translate(-9.88 -18.16)" fill="#ffc24a"/><path d="M207.8,168.81a44.33,44.33,0,0,1,.26-10.36,5.68,5.68,0,0,0,.06-2c-.28-1.35-1.59-2.44-1.55-3.81.06-1.8,2.36-2.82,4.16-2.3a3.19,3.19,0,0,1,2,4.36c-.23.43-.57.82-.76,1.27a4.24,4.24,0,0,0,.31,3c.94,2.63,2.08,16.33,2,17.46,0,.84-1.78,4.62-2.07,5.41-1.72,4.62-3.75,6.21-4.57,6.59C207,182.77,208.34,174.54,207.8,168.81Z" transform="translate(-9.88 -18.16)" fill="url(#linear-gradient-16)"/><path d="M202.42,194.24a1.15,1.15,0,0,1,1,.32,1,1,0,0,1,.14.47,16.6,16.6,0,0,1-.12,4.56,2,2,0,0,1-.56,1.25,2.34,2.34,0,0,1-1.64.33l-2.36-.09a1.08,1.08,0,0,1-.5-.11.87.87,0,0,1-.33-.45c-.59-1.37-1.23-3.88-.53-5.31S201.08,194.22,202.42,194.24Z" transform="translate(-9.88 -18.16)" fill="#fff"/><path d="M209.22,194.18a1,1,0,0,1-.63,1.06,7.39,7.39,0,0,0,2.65.72,17.92,17.92,0,0,1,5.16,1.67c1.17.59,2.37,1.44,2.58,2.68a.79.79,0,0,1,0,.48,1,1,0,0,1-.31.32,6.84,6.84,0,0,1-4,.73c-4-.07-8.22-.07-12-1.54a2.25,2.25,0,0,1-.82-.48,1.72,1.72,0,0,1-.4-.89c-.33-1.58,0-2.82,1.49-3.51A13.82,13.82,0,0,1,209.22,194.18Z" transform="translate(-9.88 -18.16)" fill="url(#linear-gradient-17)"/><path d="M196.69,294.72a4.88,4.88,0,0,0,1.48,1.76,19.62,19.62,0,0,0,5.41,3.7c2.53,1,5.35,1,8.09.93,1,0,2.12-.12,2.63-.92s.08-1.83-.39-2.65c-1.86-3.25-4.33-6.29-5.16-9.91-.27-1.14-.41-2.41-1.32-3.2-2-1.71-7.06-1.09-8.7.9a8.4,8.4,0,0,0-1.38,3.58C197,290.57,196,293.06,196.69,294.72Z" transform="translate(-9.88 -18.16)" fill="#3e3e54"/><path d="M218.93,295.44c.94.45,1.9.87,2.87,1.25a1.13,1.13,0,0,0,.82.09,1.06,1.06,0,0,0,.44-.45l1.31-2c2.42,2.67,6.58,3,10.28,2.93,1.76,0,3.51-.07,5.26-.15.77,0,1.71-.2,2-.9s-.36-1.3-.93-1.72c-3.06-2.25-7.34-2.87-9.82-5.69-1-1.16-1.7-2.66-3-3.47a8,8,0,0,0-4-.82c-2.24-.06-4.74-.28-5,2.2A58.11,58.11,0,0,0,218.93,295.44Z" transform="translate(-9.88 -18.16)" fill="#3e3e54"/><polygon points="223.33 177.6 232.61 140.93 272.3 140.93 259.32 176.81 258.94 180.82 210.22 182.15 210.22 179.1 223.33 177.6" fill="#3e3e54"/><path d="M345.22,117.4c-.54.71-1.29,1.47-1.06,2.33.17.68.87,1,1.33,1.56,1.12,1.26.76,3.28,1.59,4.74a4.58,4.58,0,0,0,3.18,2,25.24,25.24,0,0,0,3.89.22,3.28,3.28,0,0,1,2.49.87c1,1.16.38,3.4,1.76,4.05a2.42,2.42,0,0,0,1.13.17A32.24,32.24,0,0,0,364,133a2.53,2.53,0,0,0,1.45-.55,2.59,2.59,0,0,0,.6-1.7,42.94,42.94,0,0,0-3.17-20.62,10.83,10.83,0,0,0-1.91-3.25,9.09,9.09,0,0,0-3.57-2.2,16.1,16.1,0,0,0-5-1,6.17,6.17,0,0,0-4.11,1C344.45,107.75,348.14,113.56,345.22,117.4Z" transform="translate(-9.88 -18.16)" fill="url(#linear-gradient-18)"/><path d="M342.42,102.4a6.72,6.72,0,0,0,.3,2.23c.58,1.67,2.2,2.82,2.8,4.49a6.35,6.35,0,0,1,2.71-3.52,4.14,4.14,0,0,0,1.56,2.12,2.38,2.38,0,0,1,.77.67,2.19,2.19,0,0,1,.13,1.22,5.26,5.26,0,0,0,2.32,4.5c.63.41,1.35.67,2,1.1a9.28,9.28,0,0,1,2.36,2.77c1.57,2.42,3.18,5,3.44,7.84.18,2-.32,4.1.27,6a5.72,5.72,0,0,0,6.05,3.85,8.86,8.86,0,0,0,4.65,7.23,9.37,9.37,0,0,0,8.65-.05,6.12,6.12,0,0,0,2.82-2.8,7.35,7.35,0,0,0,.46-3.16c-.09-3.34-1.13-6.82-3.65-9a3.3,3.3,0,0,1-.83-.88c-.45-.85,0-1.85.43-2.73a11.62,11.62,0,0,0-2.92-13,4.52,4.52,0,0,1-1.17-1.26,3.8,3.8,0,0,1-.28-1.54c-.14-3.34-.3-6.86-2.07-9.71a12.51,12.51,0,0,0-7.38-5.11,29.77,29.77,0,0,0-9.13-.73C350.56,93.18,342.43,94.85,342.42,102.4Z" transform="translate(-9.88 -18.16)" fill="#b7a451"/><path d="M338.33,156.36a9,9,0,0,1-2.78,1.75,9.66,9.66,0,0,1-3.39.35c-9.34-.22-19-2.46-26.2-8.37-1.41-1.15-2.82-2.49-4.62-2.76L303,150.8l-6.76,0a4.6,4.6,0,0,0-2.12.34,1.59,1.59,0,0,0-.91,1.77,2.32,2.32,0,0,0,.83,1c2,1.62,4.11,3.25,6.63,3.71,1.25.23,2.54.15,3.81.27,2.88.28,5.54,1.59,8.16,2.82q7.17,3.38,14.55,6.27c2.44,1,5.07,1.89,7.63,1.3a13.26,13.26,0,0,0,3.61-1.61c7-4,14.11-8.05,19.61-13.93,2.14-2.29,4.1-5,4.21-8.18.09-2.56-1.56-5.48-4.16-6.15s-5,2.16-6.81,3.91C346.74,146.83,343.22,152.25,338.33,156.36Z" transform="translate(-9.88 -18.16)" fill="url(#linear-gradient-19)"/><path d="M110.45,173.32a2.14,2.14,0,0,0-1.08.36,1.9,1.9,0,0,0-.56,1.48,9,9,0,0,0,.91,3.68,6.13,6.13,0,0,0,1.43,2.16,2.58,2.58,0,0,0,2.41.65,3.67,3.67,0,0,0,1.92-2,1,1,0,0,0,.16-.55c0-.32-.3-.54-.53-.76-1.52-1.42-.43-2.89-1.17-4.36S111.78,173.14,110.45,173.32Z" transform="translate(-9.88 -18.16)" fill="#fff"/><rect x="190.91" y="284.44" width="27.99" height="5.6" fill="#ffc24a"/><rect x="201.95" y="202.38" width="5.51" height="85.34" fill="#ffc24a"/><path d="M218.29,129.4a.38.38,0,0,0,0-.21,1.68,1.68,0,0,1,0-1,.84.84,0,0,1,.31-.31,1.37,1.37,0,0,1,.64-.2.38.38,0,0,1,.19,0,.34.34,0,0,1,.15.2,1.78,1.78,0,0,1,0,1.16,3,3,0,0,1-.7,1.17,1.53,1.53,0,0,1-1,.52.39.39,0,0,1-.15,0,.2.2,0,0,1-.09-.11.6.6,0,0,1,0-.69C217.85,129.76,218.18,129.66,218.29,129.4Z" transform="translate(-9.88 -18.16)" fill="url(#linear-gradient-20)"/></svg>