<?xml version="1.0" standalone="no"?><svg xmlns="http://www.w3.org/2000/svg" viewBox="0 0 1440 320"><path fill="#D5D3EE" fill-opacity="0.4" d="M0,320L40,314.7C80,309,160,299,240,277.3C320,256,400,224,480,197.3C560,171,640,149,720,133.3C800,117,880,107,960,101.3C1040,96,1120,96,1200,90.7C1280,85,1360,75,1400,69.3L1440,64L1440,320L1400,320C1360,320,1280,320,1200,320C1120,320,1040,320,960,320C880,320,800,320,720,320C640,320,560,320,480,320C400,320,320,320,240,320C160,320,80,320,40,320L0,320Z"></path></svg>